<?xml version="1.0" encoding="UTF-8" standalone="no"?>
<!-- Created with Inkscape (http://www.inkscape.org/) -->

<svg
   width="210mm"
   height="297mm"
   viewBox="0 0 210 297"
   version="1.1"
   id="svg5"
   sodipodi:docname="logo.svg"
   inkscape:version="1.1.1 (3bf5ae0d25, 2021-09-20)"
   xmlns:inkscape="http://www.inkscape.org/namespaces/inkscape"
   xmlns:sodipodi="http://sodipodi.sourceforge.net/DTD/sodipodi-0.dtd"
   xmlns="http://www.w3.org/2000/svg"
   xmlns:svg="http://www.w3.org/2000/svg">
  <sodipodi:namedview
     id="namedview7"
     pagecolor="#ffffff"
     bordercolor="#666666"
     borderopacity="1.0"
     inkscape:pageshadow="2"
     inkscape:pageopacity="0.0"
     inkscape:pagecheckerboard="0"
     inkscape:document-units="mm"
     showgrid="false"
     inkscape:zoom="0.46324355"
     inkscape:cx="745.82798"
     inkscape:cy="700.49546"
     inkscape:window-width="1366"
     inkscape:window-height="705"
     inkscape:window-x="-8"
     inkscape:window-y="-8"
     inkscape:window-maximized="1"
     inkscape:current-layer="layer1"
     inkscape:object-nodes="false" />
  <defs
     id="defs2">
    <inkscape:path-effect
       effect="bspline"
       id="path-effect13346"
       is_visible="true"
       lpeversion="1"
       weight="33.333333"
       steps="2"
       helper_size="0"
       apply_no_weight="true"
       apply_with_weight="true"
       only_selected="false" />
    <inkscape:path-effect
       effect="bspline"
       id="path-effect13145"
       is_visible="true"
       lpeversion="1"
       weight="33.333333"
       steps="2"
       helper_size="0"
       apply_no_weight="true"
       apply_with_weight="true"
       only_selected="false" />
    <inkscape:path-effect
       effect="bspline"
       id="path-effect12876"
       is_visible="true"
       lpeversion="1"
       weight="33.333333"
       steps="2"
       helper_size="0"
       apply_no_weight="true"
       apply_with_weight="true"
       only_selected="false" />
    <inkscape:path-effect
       effect="bspline"
       id="path-effect11743"
       is_visible="true"
       lpeversion="1"
       weight="33.333333"
       steps="2"
       helper_size="0"
       apply_no_weight="true"
       apply_with_weight="true"
       only_selected="false" />
    <inkscape:path-effect
       effect="bspline"
       id="path-effect11657"
       is_visible="true"
       lpeversion="1"
       weight="33.333333"
       steps="2"
       helper_size="0"
       apply_no_weight="true"
       apply_with_weight="true"
       only_selected="false" />
    <inkscape:path-effect
       effect="bspline"
       id="path-effect11403"
       is_visible="true"
       lpeversion="1"
       weight="33.333333"
       steps="2"
       helper_size="0"
       apply_no_weight="true"
       apply_with_weight="true"
       only_selected="false" />
  </defs>
  <g
     inkscape:label="Layer 1"
     inkscape:groupmode="layer"
     id="layer1">
    <text
       xml:space="preserve"
       style="font-style:normal;font-weight:normal;font-size:45.7346px;line-height:1.25;font-family:sans-serif;fill:#000000;fill-opacity:1;stroke:none;stroke-width:1.14337"
       x="42.481632"
       y="106.19866"
       id="text914"
       transform="scale(0.75510912,1.3243119)"><tspan
         sodipodi:role="line"
         id="tspan912"
         style="font-weight:bold;stroke-width:1.14337"
         x="42.481632"
         y="106.19866">Sharan</tspan></text>
    <text
       xml:space="preserve"
       style="font-style:normal;font-weight:normal;font-size:143.187px;line-height:1.25;font-family:sans-serif;fill:#000000;fill-opacity:1;stroke:none;stroke-width:3.57971"
       x="161.66818"
       y="-25.723793"
       id="text3054"
       transform="matrix(0.00979147,0.78628075,-1.27178,0.00243807,0,0)"
       inkscape:transform-center-x="4.0958466"
       inkscape:transform-center-y="1.5285847"><tspan
         sodipodi:role="line"
         id="tspan3052"
         style="stroke-width:3.57971"
         x="161.66818"
         y="-25.723793">B</tspan></text>
    <path
       style="fill:#000000;stroke:#b66e24;stroke-width:0"
       id="path7901"
       sodipodi:type="arc"
       sodipodi:cx="73.107689"
       sodipodi:cy="165.9202"
       sodipodi:rx="9.7096148"
       sodipodi:ry="9.9951916"
       sodipodi:start="0"
       sodipodi:end="6.2233554"
       sodipodi:open="true"
       sodipodi:arc-type="arc"
       d="m 82.817304,165.9202 a 9.7096148,9.9951916 0 0 1 -9.564389,9.99407 9.7096148,9.9951916 0 0 1 -9.850497,-9.69511 9.7096148,9.9951916 0 0 1 9.269723,-10.28409 9.7096148,9.9951916 0 0 1 10.127789,9.38747" />
    <path
       style="fill:#000000;stroke:#b66e24;stroke-width:0"
       id="path8007"
       sodipodi:type="arc"
       sodipodi:cx="134.22115"
       sodipodi:cy="165.34904"
       sodipodi:rx="9.7096148"
       sodipodi:ry="9.9951916"
       sodipodi:start="0"
       sodipodi:end="6.2233554"
       sodipodi:open="true"
       sodipodi:arc-type="arc"
       d="m 143.93076,165.34904 a 9.7096148,9.9951916 0 0 1 -9.56439,9.99408 9.7096148,9.9951916 0 0 1 -9.85049,-9.69511 9.7096148,9.9951916 0 0 1 9.26972,-10.2841 9.7096148,9.9951916 0 0 1 10.12779,9.38748" />
    <path
       style="fill:#ffffff;stroke:#b66e24;stroke-width:0"
       id="path8233"
       sodipodi:type="arc"
       sodipodi:cx="77.383667"
       sodipodi:cy="165.66406"
       sodipodi:rx="5.425971"
       sodipodi:ry="5.7115688"
       sodipodi:start="0"
       sodipodi:end="6.2233554"
       sodipodi:open="true"
       sodipodi:arc-type="arc"
       d="m 82.809638,165.66406 a 5.425971,5.7115688 0 0 1 -5.344815,5.71093 5.425971,5.7115688 0 0 1 -5.504699,-5.54009 5.425971,5.7115688 0 0 1 5.180148,-5.87666 5.425971,5.7115688 0 0 1 5.659657,5.3643" />
    <path
       style="fill:#ffffff;stroke:#b66e24;stroke-width:0"
       id="path8315"
       sodipodi:type="arc"
       sodipodi:cx="138.49713"
       sodipodi:cy="165.09291"
       sodipodi:rx="5.425971"
       sodipodi:ry="5.7115688"
       sodipodi:start="0"
       sodipodi:end="6.2233554"
       sodipodi:open="true"
       sodipodi:arc-type="arc"
       d="m 143.9231,165.09291 a 5.425971,5.7115688 0 0 1 -5.34481,5.71093 5.425971,5.7115688 0 0 1 -5.5047,-5.54009 5.425971,5.7115688 0 0 1 5.18015,-5.87666 5.425971,5.7115688 0 0 1 5.65965,5.3643" />
    <path
       id="path13143"
       style="font-variation-settings:normal;opacity:1;fill:#ff0000;fill-opacity:1;stroke:#000000;stroke-width:0.965;stroke-linecap:butt;stroke-linejoin:miter;stroke-miterlimit:4;stroke-dasharray:none;stroke-dashoffset:0;stroke-opacity:1;stop-color:#000000;stop-opacity:1"
       d="m 108.55416,245.75165 c 2.2539,-1.27529 4.50765,-2.55049 7.19469,-3.62855 2.68704,-1.07805 5.80714,-1.95894 8.47175,-2.25228 2.6646,-0.29334 4.87346,7.6e-4 7.08202,0.29482 M 143.068,216.52645 c -7.66236,9.48217 -15.32438,18.96392 -26.20019,20.47741 -10.87581,1.5135 -24.964988,-4.94046 -39.054228,-11.39444 m 62.909128,-14.4153 c 0,0 5.62176,6.95118 5.62176,6.95118 m -67.841748,2.63426 c 0,0 -1.63005,8.54548 -1.63005,8.54548 0,0 0,0 0,0 m 67.623548,-14.28218 c -8.78041,1.73543 -17.5597,3.47064 -28.65369,5.32483 -11.09399,1.85418 -24.500138,3.82687 -37.90631,5.79956"
       sodipodi:nodetypes="ccccccccccccccc"
       inkscape:original-d="m 108.55416,245.75165 c 2.25406,-1.275 4.50781,-2.55021 6.76126,-3.82562 3.12054,-0.88072 6.24065,-1.7616 9.3605,-2.6427 2.20926,0.29431 4.41812,0.58841 6.6267,0.88231 M 143.068,216.52645 c -7.66207,9.48241 -15.32409,18.96415 -22.98604,28.44522 C 105.99198,238.5174 91.9028,232.06345 77.813582,225.60942 m 62.909128,-14.4153 5.62176,6.95118 m -67.841748,2.63426 -1.63005,8.54548 v 0 m 67.623548,-14.28218 c -8.78036,1.73569 -17.55965,3.4709 -26.34074,5.2062 -13.40691,1.97304 -26.813052,3.94574 -40.21926,5.91819"
       inkscape:path-effect="#path-effect13145" />
    <path
       style="font-variation-settings:normal;opacity:1;vector-effect:none;fill:#ff5555;fill-opacity:1;stroke:#000000;stroke-width:0.264583px;stroke-linecap:butt;stroke-linejoin:miter;stroke-miterlimit:4;stroke-dasharray:none;stroke-dashoffset:0;stroke-opacity:1;-inkscape-stroke:none;stop-color:#000000;stop-opacity:1"
       d="m 98.889257,232.37941 c 1.333353,-0.58556 3.999873,-1.75658 6.262913,-2.54648 2.26303,-0.7899 4.12243,-1.19869 6.52855,-1.33776 2.40612,-0.13907 5.35874,-0.008 7.93955,0.20387 2.58082,0.21236 4.78968,0.50645 6.32735,0.85072 1.53767,0.34427 2.40407,0.73857 2.54697,1.38931 0.1429,0.65073 -0.43735,1.55802 -1.63666,2.309 -1.19931,0.75098 -3.01783,1.3457 -4.81599,2.03342 -1.79816,0.68772 -3.57581,1.46839 -5.73456,1.84557 -2.15875,0.37718 -4.69861,0.35078 -7.71263,-0.0587 -3.01402,-0.40946 -6.50203,-1.20204 -8.42091,-1.94969 -1.918879,-0.74766 -2.268332,-1.45054 -2.443136,-1.80213 -0.174804,-0.3516 -0.174804,-0.35159 1.158553,-0.93714 z"
       id="path13344"
       inkscape:original-d="m 97.5559,232.96496 c 2.66684,-1.17082 5.33336,-2.34184 7.99956,-3.51307 1.8598,-0.4086 3.7192,-0.81739 5.57832,-1.22639 2.95305,0.13079 5.90567,0.26137 8.85804,0.39175 2.20925,0.29431 4.41811,0.5884 6.6267,0.8823 0.86675,0.39452 1.73315,0.78883 2.59924,1.18294 -0.57995,0.90751 -1.1602,1.8148 -1.74077,2.72188 -1.81828,0.59496 -3.6368,1.18968 -5.45568,1.78422 -1.7774,0.7809 -3.55505,1.56158 -5.33304,2.34205 -2.53964,-0.0262 -5.0795,-0.0526 -7.61973,-0.0792 -3.48784,-0.79241 -6.97585,-1.58499 -10.464253,-2.37779 -0.349155,-0.70271 -0.69861,-1.40559 -1.048387,-2.1087 z"
       inkscape:path-effect="#path-effect13346" />
  </g>
</svg>
