<?xml version="1.0" encoding="UTF-8" standalone="no"?>
<!-- Created with Inkscape (http://www.inkscape.org/) -->

<svg
   width="167mm"
   height="154mm"
   viewBox="0 0 167 154"
   version="1.1"
   id="svg5"
   sodipodi:docname="logo.svg"
   inkscape:version="1.1.1 (3bf5ae0d25, 2021-09-20)"
   xmlns:inkscape="http://www.inkscape.org/namespaces/inkscape"
   xmlns:sodipodi="http://sodipodi.sourceforge.net/DTD/sodipodi-0.dtd"
   xmlns="http://www.w3.org/2000/svg"
   xmlns:svg="http://www.w3.org/2000/svg">
  <sodipodi:namedview
     id="namedview7"
     pagecolor="#ffffff"
     bordercolor="#666666"
     borderopacity="1.0"
     inkscape:pageshadow="2"
     inkscape:pageopacity="0.0"
     inkscape:pagecheckerboard="0"
     inkscape:document-units="mm"
     showgrid="false"
     inkscape:zoom="0.46324355"
     inkscape:cx="139.23561"
     inkscape:cy="441.45245"
     inkscape:window-width="1366"
     inkscape:window-height="705"
     inkscape:window-x="-8"
     inkscape:window-y="-8"
     inkscape:window-maximized="1"
     inkscape:current-layer="layer1"
     inkscape:object-nodes="false"
     height="296mm" />
  <defs
     id="defs2">
    <inkscape:path-effect
       effect="bspline"
       id="path-effect14473"
       is_visible="true"
       lpeversion="1"
       weight="33.333333"
       steps="2"
       helper_size="0"
       apply_no_weight="true"
       apply_with_weight="true"
       only_selected="false" />
    <inkscape:path-effect
       effect="bspline"
       id="path-effect14387"
       is_visible="true"
       lpeversion="1"
       weight="33.333333"
       steps="2"
       helper_size="0"
       apply_no_weight="true"
       apply_with_weight="true"
       only_selected="false" />
    <inkscape:path-effect
       effect="bspline"
       id="path-effect13346"
       is_visible="true"
       lpeversion="1"
       weight="33.333333"
       steps="2"
       helper_size="0"
       apply_no_weight="true"
       apply_with_weight="true"
       only_selected="false" />
    <inkscape:path-effect
       effect="bspline"
       id="path-effect13145"
       is_visible="true"
       lpeversion="1"
       weight="33.333333"
       steps="2"
       helper_size="0"
       apply_no_weight="true"
       apply_with_weight="true"
       only_selected="false" />
    <inkscape:path-effect
       effect="bspline"
       id="path-effect12876"
       is_visible="true"
       lpeversion="1"
       weight="33.333333"
       steps="2"
       helper_size="0"
       apply_no_weight="true"
       apply_with_weight="true"
       only_selected="false" />
    <inkscape:path-effect
       effect="bspline"
       id="path-effect11743"
       is_visible="true"
       lpeversion="1"
       weight="33.333333"
       steps="2"
       helper_size="0"
       apply_no_weight="true"
       apply_with_weight="true"
       only_selected="false" />
    <inkscape:path-effect
       effect="bspline"
       id="path-effect11657"
       is_visible="true"
       lpeversion="1"
       weight="33.333333"
       steps="2"
       helper_size="0"
       apply_no_weight="true"
       apply_with_weight="true"
       only_selected="false" />
    <inkscape:path-effect
       effect="bspline"
       id="path-effect11403"
       is_visible="true"
       lpeversion="1"
       weight="33.333333"
       steps="2"
       helper_size="0"
       apply_no_weight="true"
       apply_with_weight="true"
       only_selected="false" />
  </defs>
  <g
     inkscape:label="Layer 1"
     inkscape:groupmode="layer"
     id="layer1">
    <text
       xml:space="preserve"
       style="font-style:normal;font-weight:normal;font-size:45.7346px;line-height:1.25;font-family:sans-serif;fill:#ffffff;fill-opacity:1;stroke:none;stroke-width:1.14337"
       x="-0.6879648"
       y="35.46817"
       id="text914"
       transform="scale(0.75510912,1.3243119)"><tspan
         sodipodi:role="line"
         id="tspan912"
         style="font-weight:bold;stroke-width:1.14337;fill:#ffffff"
         x="-0.6879648"
         y="35.46817">Sharan</tspan></text>
    <text
       xml:space="preserve"
       style="font-style:normal;font-weight:normal;font-size:143.187px;line-height:1.25;font-family:sans-serif;fill:#ffffff;fill-opacity:1;stroke:none;stroke-width:3.57971"
       x="42.460762"
       y="-0.59389067"
       id="text3054"
       transform="matrix(0.00979147,0.78628075,-1.27178,0.00243807,0,0)"
       inkscape:transform-center-x="4.0958466"
       inkscape:transform-center-y="1.5285847"><tspan
         sodipodi:role="line"
         id="tspan3052"
         style="stroke-width:3.57971;fill:#ffffff"
         x="42.460762"
         y="-0.59389067">B</tspan></text>
    <path
       style="fill:#ffffff;stroke:#b66e24;stroke-width:0"
       id="path7901"
       sodipodi:type="arc"
       sodipodi:cx="39.980766"
       sodipodi:cy="72.250969"
       sodipodi:rx="9.7096148"
       sodipodi:ry="9.9951916"
       sodipodi:start="0"
       sodipodi:end="6.2233554"
       sodipodi:open="true"
       sodipodi:arc-type="arc"
       d="m 49.690381,72.250969 a 9.7096148,9.9951916 0 0 1 -9.564389,9.994073 9.7096148,9.9951916 0 0 1 -9.850496,-9.695112 9.7096148,9.9951916 0 0 1 9.269723,-10.284092 9.7096148,9.9951916 0 0 1 10.127789,9.387476" />
    <path
       style="fill:#ffffff;stroke:#b66e24;stroke-width:0"
       id="path8007"
       sodipodi:type="arc"
       sodipodi:cx="101.09422"
       sodipodi:cy="71.679817"
       sodipodi:rx="9.7096148"
       sodipodi:ry="9.9951916"
       sodipodi:start="0"
       sodipodi:end="6.2233554"
       sodipodi:open="true"
       sodipodi:arc-type="arc"
       d="m 110.80384,71.679817 a 9.7096148,9.9951916 0 0 1 -9.56439,9.994074 9.7096148,9.9951916 0 0 1 -9.850497,-9.695113 9.7096148,9.9951916 0 0 1 9.269727,-10.284091 9.7096148,9.9951916 0 0 1 10.12778,9.387476" />
    <path
       style="fill:#000000;stroke:#b66e24;stroke-width:0"
       id="path8233"
       sodipodi:type="arc"
       sodipodi:cx="44.256744"
       sodipodi:cy="71.994835"
       sodipodi:rx="5.425971"
       sodipodi:ry="5.7115688"
       sodipodi:start="0"
       sodipodi:end="6.2233554"
       sodipodi:open="true"
       sodipodi:arc-type="arc"
       d="m 49.682715,71.994835 a 5.425971,5.7115688 0 0 1 -5.344815,5.71093 5.425971,5.7115688 0 0 1 -5.504699,-5.540094 5.425971,5.7115688 0 0 1 5.180149,-5.876656 5.425971,5.7115688 0 0 1 5.659657,5.364301" />
    <path
       style="fill:#000000;stroke:#b66e24;stroke-width:0"
       id="path8315"
       sodipodi:type="arc"
       sodipodi:cx="105.37021"
       sodipodi:cy="71.423683"
       sodipodi:rx="5.425971"
       sodipodi:ry="5.7115688"
       sodipodi:start="0"
       sodipodi:end="6.2233554"
       sodipodi:open="true"
       sodipodi:arc-type="arc"
       d="m 110.79618,71.423683 a 5.425971,5.7115688 0 0 1 -5.34482,5.71093 5.425971,5.7115688 0 0 1 -5.504695,-5.540094 5.425971,5.7115688 0 0 1 5.180145,-5.876655 5.425971,5.7115688 0 0 1 5.65966,5.3643" />
    <path
       id="path13143"
       style="font-variation-settings:normal;opacity:1;fill:#ff0000;fill-opacity:1;stroke:#000000;stroke-width:0.965;stroke-linecap:butt;stroke-linejoin:miter;stroke-miterlimit:4;stroke-dasharray:none;stroke-dashoffset:0;stroke-opacity:1;stop-color:#000000;stop-opacity:1"
       d="m 75.427237,152.08242 c 2.253897,-1.27529 4.507649,-2.55049 7.194687,-3.62855 2.687038,-1.07805 5.807147,-1.95894 8.471751,-2.25228 2.664603,-0.29334 4.873463,7.6e-4 7.082022,0.29482 m 11.765383,-23.63919 c -7.66236,9.48217 -15.324382,18.96392 -26.200192,20.47741 -10.875811,1.5135 -24.964989,-4.94046 -39.054229,-11.39444 m 62.909131,-14.4153 c 0,0 5.62176,6.95118 5.62176,6.95118 m -67.841751,2.63426 c 0,0 -1.63005,8.54548 -1.63005,8.54548 0,0 0,0 0,0 M 111.3693,121.37363 c -8.78041,1.73543 -17.559704,3.47064 -28.653695,5.32483 -11.093992,1.85418 -24.500136,3.82687 -37.906308,5.79956"
       sodipodi:nodetypes="ccccccccccccccc"
       inkscape:original-d="m 75.427237,152.08242 c 2.25406,-1.275 4.50781,-2.55021 6.76126,-3.82562 3.12054,-0.88072 6.24065,-1.7616 9.3605,-2.6427 2.20926,0.29431 4.41812,0.58841 6.6267,0.88231 m 11.765383,-23.63919 c -7.66207,9.48241 -15.324093,18.96415 -22.986043,28.44522 -14.08998,-6.45427 -28.17916,-12.90822 -42.268378,-19.36225 m 62.909131,-14.4153 5.62176,6.95118 m -67.841751,2.63426 -1.63005,8.54548 v 0 M 111.3693,121.37363 c -8.78036,1.73569 -17.559653,3.4709 -26.340743,5.2062 -13.40691,1.97304 -26.813052,3.94574 -40.21926,5.91819"
       inkscape:path-effect="#path-effect13145" />
    <path
       style="font-variation-settings:normal;opacity:1;vector-effect:none;fill:#ff5555;fill-opacity:1;stroke:#000000;stroke-width:0.264583px;stroke-linecap:butt;stroke-linejoin:miter;stroke-miterlimit:4;stroke-dasharray:none;stroke-dashoffset:0;stroke-opacity:1;-inkscape-stroke:none;stop-color:#000000;stop-opacity:1"
       d="m 65.762334,138.71018 c 1.333356,-0.58556 3.999875,-1.75658 6.26291,-2.54648 2.263035,-0.7899 4.122436,-1.19869 6.528554,-1.33776 2.406117,-0.13907 5.358737,-0.008 7.939554,0.20387 2.580816,0.21236 4.789676,0.50645 6.327345,0.85072 1.53767,0.34427 2.404071,0.73857 2.546973,1.38931 0.142901,0.65073 -0.437352,1.55802 -1.636664,2.309 -1.199311,0.75098 -3.017829,1.3457 -4.815987,2.03342 -1.798157,0.68772 -3.575811,1.46839 -5.73456,1.84557 -2.15875,0.37718 -4.69861,0.35078 -7.712632,-0.0587 -3.014022,-0.40946 -6.502032,-1.20204 -8.42091,-1.94969 -1.918879,-0.74766 -2.268332,-1.45054 -2.443136,-1.80213 -0.174804,-0.3516 -0.174804,-0.35159 1.158553,-0.93714 z"
       id="path13344"
       inkscape:original-d="m 64.428977,139.29573 c 2.66684,-1.17082 5.33336,-2.34184 7.99956,-3.51307 1.8598,-0.4086 3.7192,-0.81739 5.57832,-1.22639 2.95305,0.13079 5.90567,0.26137 8.85804,0.39175 2.20925,0.29431 4.41811,0.5884 6.6267,0.8823 0.86675,0.39452 1.73315,0.78883 2.59924,1.18294 -0.57995,0.90751 -1.1602,1.8148 -1.74077,2.72188 -1.81828,0.59496 -3.6368,1.18968 -5.45568,1.78422 -1.7774,0.7809 -3.55505,1.56158 -5.33304,2.34205 -2.53964,-0.0262 -5.0795,-0.0526 -7.61973,-0.0792 -3.48784,-0.79241 -6.97585,-1.58499 -10.464253,-2.37779 -0.349155,-0.70271 -0.69861,-1.40559 -1.048387,-2.1087 z"
       inkscape:path-effect="#path-effect13346" />
    <path
       style="font-variation-settings:normal;opacity:1;fill:none;fill-opacity:1;stroke:#ffffff;stroke-width:5.865;stroke-linecap:butt;stroke-linejoin:miter;stroke-miterlimit:4;stroke-dasharray:none;stroke-dashoffset:0;stroke-opacity:1;stop-color:#000000;stop-opacity:1"
       d="m 132.50769,67.396159 c 8.75773,-7.04426 17.51542,-14.088491 22.37037,-17.515369 4.85496,-3.426879 5.80686,-3.236497 6.75876,-2.570026 0.9519,0.66647 1.90381,1.808755 2.09404,3.046187 0.19023,1.237432 -0.38091,2.570101 -0.95201,3.902668"
       id="path14385"
       inkscape:path-effect="#path-effect14387"
       inkscape:original-d="m 132.50769,67.396159 c 8.75796,-7.04397 17.51565,-14.0882 26.27308,-21.1327 0.95221,0.19066 1.90411,0.38104 2.85577,0.57116 0.95221,1.14259 1.90411,2.28488 2.85577,3.42692 -0.5709,1.33298 -1.14204,2.66565 -1.71346,3.99808" />
    <path
       style="font-variation-settings:normal;opacity:1;fill:none;fill-opacity:1;stroke:#ffffff;stroke-width:5.865;stroke-linecap:butt;stroke-linejoin:miter;stroke-miterlimit:4;stroke-dasharray:none;stroke-dashoffset:0;stroke-opacity:1;stop-color:#000000;stop-opacity:1"
       d="M 3.4269179,73.678849 C 12.184645,66.634589 20.942334,59.590358 25.797292,56.16348 c 4.854958,-3.426879 5.806857,-3.236497 6.758757,-2.570026 0.951899,0.66647 1.903805,1.808755 2.094038,3.046187 0.190233,1.237432 -0.38091,2.570101 -0.952009,3.902668"
       id="path14469"
       inkscape:path-effect="#path-effect14473"
       inkscape:original-d="m 3.4269179,73.678849 c 8.7579601,-7.04397 17.5156501,-14.0882 26.2730801,-21.1327 0.95221,0.19066 1.90411,0.38104 2.85577,0.57116 0.95221,1.14259 1.90411,2.28488 2.85577,3.42692 -0.5709,1.33298 -1.14204,2.66565 -1.71346,3.99808" />
  </g>
</svg>
