<?xml version="1.0" encoding="UTF-8" standalone="no"?>
<!-- Created with Inkscape (http://www.inkscape.org/) -->

<svg
   width="103mm"
   height="96mm"
   viewBox="0 0 103 96"
   version="1.1"
   id="svg5"
   sodipodi:docname="logo.svg"
   inkscape:version="1.1.1 (3bf5ae0d25, 2021-09-20)"
   xmlns:inkscape="http://www.inkscape.org/namespaces/inkscape"
   xmlns:sodipodi="http://sodipodi.sourceforge.net/DTD/sodipodi-0.dtd"
   xmlns="http://www.w3.org/2000/svg"
   xmlns:svg="http://www.w3.org/2000/svg">
  <sodipodi:namedview
     id="namedview7"
     pagecolor="#ffffff"
     bordercolor="#666666"
     borderopacity="1.0"
     inkscape:pageshadow="2"
     inkscape:pageopacity="0.0"
     inkscape:pagecheckerboard="0"
     inkscape:document-units="mm"
     showgrid="false"
     inkscape:zoom="0.46324355"
     inkscape:cx="139.23561"
     inkscape:cy="441.45245"
     inkscape:window-width="1366"
     inkscape:window-height="705"
     inkscape:window-x="-8"
     inkscape:window-y="-8"
     inkscape:window-maximized="1"
     inkscape:current-layer="layer1"
     inkscape:object-nodes="false"
     height="296mm" />
  <defs
     id="defs2">
    <inkscape:path-effect
       effect="bspline"
       id="path-effect14473"
       is_visible="true"
       lpeversion="1"
       weight="33.333333"
       steps="2"
       helper_size="0"
       apply_no_weight="true"
       apply_with_weight="true"
       only_selected="false" />
    <inkscape:path-effect
       effect="bspline"
       id="path-effect14387"
       is_visible="true"
       lpeversion="1"
       weight="33.333333"
       steps="2"
       helper_size="0"
       apply_no_weight="true"
       apply_with_weight="true"
       only_selected="false" />
    <inkscape:path-effect
       effect="bspline"
       id="path-effect13346"
       is_visible="true"
       lpeversion="1"
       weight="33.333333"
       steps="2"
       helper_size="0"
       apply_no_weight="true"
       apply_with_weight="true"
       only_selected="false" />
    <inkscape:path-effect
       effect="bspline"
       id="path-effect13145"
       is_visible="true"
       lpeversion="1"
       weight="33.333333"
       steps="2"
       helper_size="0"
       apply_no_weight="true"
       apply_with_weight="true"
       only_selected="false" />
    <inkscape:path-effect
       effect="bspline"
       id="path-effect12876"
       is_visible="true"
       lpeversion="1"
       weight="33.333333"
       steps="2"
       helper_size="0"
       apply_no_weight="true"
       apply_with_weight="true"
       only_selected="false" />
    <inkscape:path-effect
       effect="bspline"
       id="path-effect11743"
       is_visible="true"
       lpeversion="1"
       weight="33.333333"
       steps="2"
       helper_size="0"
       apply_no_weight="true"
       apply_with_weight="true"
       only_selected="false" />
    <inkscape:path-effect
       effect="bspline"
       id="path-effect11657"
       is_visible="true"
       lpeversion="1"
       weight="33.333333"
       steps="2"
       helper_size="0"
       apply_no_weight="true"
       apply_with_weight="true"
       only_selected="false" />
    <inkscape:path-effect
       effect="bspline"
       id="path-effect11403"
       is_visible="true"
       lpeversion="1"
       weight="33.333333"
       steps="2"
       helper_size="0"
       apply_no_weight="true"
       apply_with_weight="true"
       only_selected="false" />
  </defs>
  <g
     inkscape:label="Layer 1"
     inkscape:groupmode="layer"
     id="layer1">
    <text
       xml:space="preserve"
       style="font-style:normal;font-weight:normal;font-size:26.3315px;line-height:1.25;font-family:sans-serif;fill:#ffffff;fill-opacity:1;stroke:none;stroke-width:0.658291"
       x="0.82860708"
       y="20.896839"
       id="text914"
       transform="scale(0.72718208,1.3751714)"><tspan
         sodipodi:role="line"
         id="tspan912"
         style="font-weight:bold;fill:#ffffff;stroke-width:0.658291"
         x="0.82860708"
         y="20.896839">Sharan</tspan></text>
    <text
       xml:space="preserve"
       style="font-style:normal;font-weight:normal;font-size:82.4394px;line-height:1.25;font-family:sans-serif;fill:#ffffff;fill-opacity:1;stroke:none;stroke-width:2.061"
       x="25.229591"
       y="-1.0630555"
       id="text3054"
       transform="matrix(0.00942934,0.81647747,-1.2247443,0.0025317,0,0)"
       inkscape:transform-center-x="2.2709435"
       inkscape:transform-center-y="0.91388427"><tspan
         sodipodi:role="line"
         id="tspan3052"
         style="fill:#ffffff;stroke-width:2.061"
         x="25.229591"
         y="-1.0630555">B</tspan></text>
    <path
       style="fill:#ffffff;stroke:#b66e24;stroke-width:0"
       id="path7901"
       sodipodi:type="arc"
       sodipodi:cx="23.058025"
       sodipodi:cy="43.833218"
       sodipodi:rx="5.383523"
       sodipodi:ry="5.9757004"
       sodipodi:start="0"
       sodipodi:end="6.2233554"
       sodipodi:open="true"
       sodipodi:arc-type="arc"
       d="m 28.441548,43.833218 a 5.383523,5.9757004 0 0 1 -5.303002,5.975032 5.383523,5.9757004 0 0 1 -5.461635,-5.796296 5.383523,5.9757004 0 0 1 5.139624,-6.148422 5.383523,5.9757004 0 0 1 5.615381,5.612373" />
    <path
       style="fill:#ffffff;stroke:#b66e24;stroke-width:0"
       id="path8007"
       sodipodi:type="arc"
       sodipodi:cx="56.942547"
       sodipodi:cy="43.491749"
       sodipodi:rx="5.383523"
       sodipodi:ry="5.9757004"
       sodipodi:start="0"
       sodipodi:end="6.2233554"
       sodipodi:open="true"
       sodipodi:arc-type="arc"
       d="m 62.32607,43.491749 a 5.383523,5.9757004 0 0 1 -5.303002,5.975032 5.383523,5.9757004 0 0 1 -5.461635,-5.796296 5.383523,5.9757004 0 0 1 5.139623,-6.148421 5.383523,5.9757004 0 0 1 5.615381,5.612372" />
    <path
       style="fill:#000000;stroke:#b66e24;stroke-width:0"
       id="path8233"
       sodipodi:type="arc"
       sodipodi:cx="25.42885"
       sodipodi:cy="43.680084"
       sodipodi:rx="3.0084448"
       sodipodi:ry="3.4147041"
       sodipodi:start="0"
       sodipodi:end="6.2233554"
       sodipodi:open="true"
       sodipodi:arc-type="arc"
       d="m 28.437295,43.680084 a 3.0084448,3.4147041 0 0 1 -2.963448,3.414322 3.0084448,3.4147041 0 0 1 -3.052096,-3.312186 3.0084448,3.4147041 0 0 1 2.872148,-3.513403 3.0084448,3.4147041 0 0 1 3.138013,3.207088" />
    <path
       style="fill:#000000;stroke:#b66e24;stroke-width:0"
       id="path8315"
       sodipodi:type="arc"
       sodipodi:cx="59.313385"
       sodipodi:cy="43.338619"
       sodipodi:rx="3.0084448"
       sodipodi:ry="3.4147041"
       sodipodi:start="0"
       sodipodi:end="6.2233554"
       sodipodi:open="true"
       sodipodi:arc-type="arc"
       d="m 62.32183,43.338619 a 3.0084448,3.4147041 0 0 1 -2.963448,3.414322 3.0084448,3.4147041 0 0 1 -3.052096,-3.312186 3.0084448,3.4147041 0 0 1 2.872148,-3.513403 3.0084448,3.4147041 0 0 1 3.138013,3.207088" />
    <path
       id="path13143"
       style="font-variation-settings:normal;opacity:1;fill:#ff0000;fill-opacity:1;stroke:#000000;stroke-width:0.555595;stroke-linecap:butt;stroke-linejoin:miter;stroke-miterlimit:4;stroke-dasharray:none;stroke-dashoffset:0;stroke-opacity:1;stop-color:#000000;stop-opacity:1"
       d="m 42.711418,91.560988 c 1.249666,-0.762425 2.499265,-1.52481 3.989103,-2.169332 1.489839,-0.644521 3.219792,-1.171162 4.697194,-1.346536 1.477401,-0.175375 2.702108,4.54e-4 3.926648,0.176259 M 61.847716,74.088547 C 57.599277,79.757542 53.351052,85.426252 47.320939,86.331098 41.290826,87.235943 33.47904,83.377415 25.667219,79.51887 m 34.880144,-8.618292 c 0,0 3.117,4.155811 3.117,4.155811 m -37.615048,1.574913 c 0,0 -0.903786,5.108973 -0.903786,5.108973 0,0 0,0 0,0 m 37.494067,-8.538701 c -4.868327,1.037543 -9.736033,2.074953 -15.887126,3.18349 -6.151093,1.108537 -13.584167,2.287925 -21.017254,3.467314"
       sodipodi:nodetypes="ccccccccccccccc"
       inkscape:original-d="m 42.711418,91.560988 c 1.24977,-0.762254 2.499368,-1.524641 3.748799,-2.287155 1.730192,-0.526537 3.460146,-1.053174 5.189956,-1.579951 1.22493,0.175957 2.449638,0.351777 3.67419,0.527497 M 61.847716,74.088547 C 57.599459,79.757678 53.351228,85.426384 49.103038,91.094681 41.29081,87.235975 33.479025,83.377446 25.667219,79.51887 m 34.880144,-8.618292 3.117,4.155811 m -37.615048,1.574913 -0.903786,5.108973 v 0 m 37.494067,-8.538701 c -4.868294,1.037699 -9.736,2.075106 -14.6047,3.112569 -7.433498,1.179591 -14.866571,2.358987 -22.29968,3.538235"
       inkscape:path-effect="#path-effect13145" />
    <path
       style="font-variation-settings:normal;opacity:1;vector-effect:none;fill:#ff5555;fill-opacity:1;stroke:#000000;stroke-width:0.152333px;stroke-linecap:butt;stroke-linejoin:miter;stroke-miterlimit:4;stroke-dasharray:none;stroke-dashoffset:0;stroke-opacity:1;-inkscape-stroke:none;stop-color:#000000;stop-opacity:1"
       d="m 37.352682,83.566348 c 0.73928,-0.350075 2.217736,-1.050176 3.472484,-1.522424 1.254749,-0.472247 2.285698,-0.71664 3.61978,-0.799783 1.334082,-0.08314 2.97117,-0.0051 4.402111,0.121886 1.430941,0.12696 2.655649,0.302785 3.508213,0.508604 0.852565,0.205819 1.332945,0.441555 1.412171,0.830605 0.07923,0.389049 -0.242496,0.931476 -0.907456,1.380447 -0.664961,0.448971 -1.673243,0.804531 -2.670238,1.215685 -0.996994,0.411155 -1.982619,0.877882 -3.179538,1.103389 -1.19692,0.225506 -2.605154,0.20974 -4.276286,-0.03505 -1.671133,-0.244794 -3.605067,-0.71864 -4.668999,-1.165635 -1.063931,-0.446994 -1.257684,-0.867212 -1.354602,-1.077413 -0.09692,-0.210201 -0.09692,-0.210231 0.64236,-0.560306 z"
       id="path13344"
       inkscape:original-d="m 36.613403,83.916423 c 1.478636,-0.699987 2.957096,-1.400081 4.435377,-2.100308 1.031172,-0.24428 2.062121,-0.488677 3.092915,-0.733197 1.637327,0.0782 3.274416,0.15626 4.911365,0.23421 1.224925,0.175947 2.449634,0.351767 3.674192,0.527487 0.480572,0.235857 0.96095,0.471597 1.441154,0.707214 -0.321553,0.542567 -0.643274,1.084994 -0.965172,1.627291 -1.008151,0.3557 -2.016435,0.711257 -3.024917,1.066704 -0.985484,0.466867 -1.971108,0.933597 -2.956919,1.400204 -1.408111,-0.0156 -2.816343,-0.0315 -4.22478,-0.0473 -1.933843,-0.473757 -3.86778,-0.947594 -5.801935,-1.421571 -0.19359,-0.42013 -0.387346,-0.840347 -0.58128,-1.260704 z"
       inkscape:path-effect="#path-effect13346" />
    <path
       style="font-variation-settings:normal;opacity:1;fill:#ffffff;fill-opacity:1;stroke:#ffffff;stroke-width:3.37675;stroke-linecap:butt;stroke-linejoin:miter;stroke-miterlimit:4;stroke-dasharray:none;stroke-dashoffset:0;stroke-opacity:1;stop-color:#000000;stop-opacity:1"
       d="m 74.359835,40.93074 c 4.855732,-4.211451 9.71146,-8.422898 12.403312,-10.471689 2.691853,-2.048791 3.219637,-1.934969 3.747417,-1.536516 0.52778,0.398452 1.055567,1.081378 1.16104,1.821191 0.105473,0.739813 -0.211198,1.536558 -0.527843,2.333235"
       id="path14385"
       inkscape:path-effect="#path-effect14387"
       inkscape:original-d="m 74.359835,40.93074 c 4.855872,-4.21129 9.7116,-8.422736 14.567186,-12.634343 0.527952,0.113987 1.055737,0.227807 1.583387,0.341472 0.527952,0.683106 1.055737,1.366033 1.583387,2.048809 -0.316538,0.796933 -0.633202,1.59368 -0.950034,2.390283" />
    <path
       style="font-variation-settings:normal;opacity:1;fill:#ffffff;fill-opacity:1;stroke:#ffffff;stroke-width:3.37675;stroke-linecap:butt;stroke-linejoin:miter;stroke-miterlimit:4;stroke-dasharray:none;stroke-dashoffset:0;stroke-opacity:1;stop-color:#000000;stop-opacity:1"
       d="M 2.7906436,44.686893 C 7.6463769,40.47544 12.502102,36.263994 15.193954,34.215204 c 2.691852,-2.04879 3.219635,-1.934969 3.747416,-1.536515 0.527781,0.398453 1.055568,1.081377 1.161042,1.82119 0.105474,0.739814 -0.211198,1.53656 -0.527842,2.333235"
       id="path14469"
       inkscape:path-effect="#path-effect14473"
       inkscape:original-d="m 2.7906436,44.686893 c 4.8558749,-4.21129 9.7115994,-8.422736 14.5671804,-12.634343 0.527955,0.113987 1.055739,0.227808 1.583389,0.341472 0.527956,0.683106 1.055739,1.366033 1.58339,2.04881 -0.316538,0.796932 -0.633207,1.593679 -0.950033,2.390282" />
  </g>
</svg>
